<svg id="Layer_1" data-name="Layer 1" xmlns="http://www.w3.org/2000/svg" viewBox="0 0 360.43 439.73"><defs><style>.cls-1{fill:#1b75bc;}.cls-2{fill:#2b3990;}.cls-3{fill:#174895;}.cls-4{fill:#faa322;}.cls-5{fill:#e6e7e8;}.cls-6{fill:#d1d3d4;}.cls-7{fill:#fff;}</style></defs><title>login_page</title><polygon class="cls-1" points="297.71 324.24 297.71 345.59 226.96 372.8 203.22 372.8 203.22 347.43 163.92 347.43 163.92 372.8 133.08 372.9 61.84 345.63 62.92 324.24 297.71 324.24"/><path class="cls-2" d="M59.1,320.22l-1.43,28.11L132,376.8l.35.14,35.59-.14V351.46h31.26v25.35h28.51l74-28.44V320.22Zm238.61,25.37L227,372.8H203.22V347.43H163.92V372.8l-30.84.1L61.84,345.63l1.08-21.39H297.71Z"/><polygon class="cls-3" points="113.19 353.04 161.64 353.04 159.46 369.82 137.41 369.82 113.19 353.04"/><path class="cls-3" d="M208.11,350s30.92.64,52.54-15.51h35.2v6.11l-66.37,26.19H210.21Z"/><path class="cls-1" d="M290.72,141.56H62.31l6.34-53.47,98.2-10L170.21,58l-1.45-.51a15.38,15.38,0,1,1,10.34,0l-1.45.51,1.5,19,107.28-9.6Z"/><path class="cls-2" d="M290.2,63l-107.37,9.6-.94-11.93a19.4,19.4,0,1,0-15.92,0l-2.85,13.74L65,84.41l-7.25,61.17H295ZM166.85,78.05,170.21,58l-1.45-.51a15.38,15.38,0,1,1,10.34,0l-1.45.51,1.5,19,107.28-9.6,4.3,74.18H62.31l6.34-53.47Z"/><path class="cls-2" d="M60.61,191.47h17V309.23h-17Z"/><path class="cls-2" d="M220.86,207.62H196.3V309.23H179V207.62H154.58V191.47h66.28Z"/><path class="cls-2" d="M257.15,266.5h-10.6v42.73h-17V191.47H260c22.54,0,35.33,13.46,35.33,36.84,0,18.34-7.74,31-21.2,35.83l25.57,45.08H280.87Zm-10.6-16.15h13.12c11.94,0,18.17-7.74,18.17-21.7s-6.22-21-18-21H246.55Z"/><path class="cls-4" d="M127.65,297.74a42.83,42.83,0,1,1,42.83-42.83A42.88,42.88,0,0,1,127.65,297.74Zm0-69c-13.91,0-25.22,11.73-25.22,26.16s11.31,26.15,25.22,26.15,25.22-11.73,25.22-26.15S141.55,228.76,127.65,228.76Z"/><polygon class="cls-5" points="290.44 161.94 290.44 171.14 63.73 176.41 62.73 156.77 290.44 161.94"/><path class="cls-2" d="M60.6,152.77l-2.1,0,1.4,27.75,234.56-5.47V157.88Zm229.84,18.37L63.73,176.41l-1-19.64,227.71,5.17Z"/><path class="cls-3" d="M186.47,42.34a12.45,12.45,0,0,1-24.13,4.29,12.3,12.3,0,0,0,5.07,1.08,12.46,12.46,0,0,0,12.44-12.46,11.81,11.81,0,0,0-.78-4.27A12.44,12.44,0,0,1,186.47,42.34Z"/><polygon class="cls-6" points="67.04 167.53 67.04 159.67 288 163.6 288 167.53 67.04 167.53"/><path class="cls-3" d="M82,129.26S223.37,133.54,257.51,84h22.83l4.44,51.69H78.93Z"/><path class="cls-7" d="M151.42,108a11.55,11.55,0,1,1-11.54-11.56A11.57,11.57,0,0,1,151.42,108Z"/><path class="cls-2" d="M139.88,92.44A15.58,15.58,0,1,0,155.45,108,15.6,15.6,0,0,0,139.88,92.44Zm0,27.13A11.56,11.56,0,1,1,151.42,108,11.57,11.57,0,0,1,139.88,119.57Z"/><path class="cls-2" d="M217.86,84.91a23.35,23.35,0,1,0,23.35,23.35A23.36,23.36,0,0,0,217.86,84.91Zm0,42.66a19.31,19.31,0,1,1,19.33-19.31A19.33,19.33,0,0,1,217.86,127.57Z"/><path class="cls-7" d="M237.19,108.26a19.32,19.32,0,1,1-19.33-19.31A19.33,19.33,0,0,1,237.19,108.26Z"/><circle class="cls-2" cx="139.87" cy="108.01" r="6.63"/><circle class="cls-4" cx="217.86" cy="108.01" r="11.98"/></svg>